<svg width="56" height="56" viewBox="0 0 56 56" fill="none" xmlns="http://www.w3.org/2000/svg">
<g clip-path="url(#clip0_2167_83615)">
<path d="M29.9475 3.20246L5.53948 17.2945C2.47579 19.0633 1.4261 22.9808 3.19492 26.0445L17.2869 50.4525C19.0557 53.5162 22.9733 54.5659 26.0369 52.7971L50.445 38.7051C53.5087 36.9363 54.5584 33.0188 52.7896 29.9551L38.6976 5.54702C36.9287 2.48334 33.0112 1.43364 29.9475 3.20246Z" fill="white"/>
<path d="M14.1644 27.1094C16.0027 26.048 16.6326 23.6973 15.5712 21.859C14.5098 20.0206 12.1592 19.3908 10.3208 20.4521C8.48246 21.5135 7.8526 23.8642 8.91397 25.7025C9.97534 27.5409 12.326 28.1707 14.1644 27.1094Z" fill="#121C1A"/>
<path d="M45.6644 35.5506C47.5027 34.4893 48.1326 32.1386 47.0712 30.3002C46.0098 28.4619 43.6592 27.832 41.8208 28.8934C39.9825 29.9548 39.3526 32.3055 40.414 34.1438C41.4753 35.9822 43.826 36.612 45.6644 35.5506Z" fill="#121C1A"/>
<path d="M29.9144 31.3287C31.7527 30.2674 32.3826 27.9167 31.3212 26.0783C30.2598 24.24 27.9092 23.6101 26.0708 24.6715C24.2325 25.7329 23.6026 28.0835 24.664 29.9219C25.7253 31.7602 28.076 32.3901 29.9144 31.3287Z" fill="#121C1A"/>
<path opacity="0.2" d="M38.6976 5.54702L52.7896 29.9551C53.6384 31.4265 53.8682 33.1747 53.4286 34.8154C52.9889 36.4562 51.9158 37.8553 50.445 38.7051L26.0369 52.7971C24.5656 53.6459 22.8174 53.8757 21.1766 53.4361C19.5358 52.9965 18.1368 51.9233 17.2869 50.4525L14.8593 46.2477C17.5655 47.751 20.6152 48.5271 23.7109 48.5002C26.8065 48.4733 29.8423 47.6444 32.522 46.0944L38.0693 42.8916C39.9634 41.7982 41.6236 40.3423 42.955 38.6072C44.2865 36.8721 45.2631 34.8917 45.8292 32.7792C46.3952 30.6666 46.5396 28.4633 46.2541 26.2949C45.9686 24.1265 45.2588 22.0356 44.1652 20.1416L40.9625 14.5943C39.4168 11.9121 37.2021 9.6763 34.5347 8.1052C31.8672 6.53411 28.838 5.68135 25.7427 5.63013L29.9475 3.20246C31.4189 2.35367 33.1671 2.12383 34.8079 2.56347C36.4486 3.00312 37.8477 4.07625 38.6976 5.54702Z" fill="#030303"/>
</g>
<defs>
<clipPath id="clip0_2167_83615">
<rect width="40.9949" height="40.9949" fill="white" transform="translate(0 20.4973) rotate(-30)"/>
</clipPath>
</defs>
</svg>
