<svg width="87" height="57" viewBox="0 0 87 57" fill="none" xmlns="http://www.w3.org/2000/svg">
<path d="M58.7813 2.27211C43.7777 5.73347 32.0723 9.64509 26.7467 12.9657C23.0702 15.2452 22.8539 16.5397 26.0168 16.8774C27.9902 17.1025 33.1266 16.6804 38.5062 15.8643C43.6155 15.1045 43.3993 15.1889 42.5612 14.1477C39.7227 10.63 46.1567 6.18373 59.4301 2.52538C63.404 1.42788 63.0526 1.28717 58.7813 2.27211Z" fill="url(#paint0_linear_2857_132441)"/>
<path d="M54.9954 13.359C52.0758 13.6404 44.4794 14.7098 43.9117 14.9349C43.5873 15.0756 43.6414 15.2445 44.1821 15.948C46.9935 19.4375 40.5596 23.9119 27.5565 27.5703C25.6912 28.0768 24.3125 28.5271 24.5017 28.5271C24.8802 28.5552 34.7474 26.2477 37.694 25.4597C46.3718 23.0958 53.2653 20.6757 57.6988 18.4244C62.1593 16.145 63.8624 14.4284 62.4566 13.6404C61.6997 13.2464 57.8339 13.0776 54.9954 13.359Z" fill="url(#paint1_linear_2857_132441)"/>
<path d="M0.38 38.56H1.91C1.94333 38.8333 2.06 39.0767 2.26 39.29C2.46 39.4967 2.72333 39.6567 3.05 39.77C3.37667 39.8833 3.75667 39.94 4.19 39.94C4.82333 39.94 5.32333 39.8433 5.69 39.65C6.05667 39.4567 6.24 39.1933 6.24 38.86C6.24 38.5933 6.13333 38.3933 5.92 38.26C5.70667 38.12 5.32 38.0167 4.76 37.95L3.2 37.76C2.26 37.6467 1.57667 37.42 1.15 37.08C0.73 36.74 0.52 36.26 0.52 35.64C0.52 35.1667 0.66 34.76 0.94 34.42C1.22667 34.08 1.62667 33.8167 2.14 33.63C2.66 33.4433 3.26667 33.35 3.96 33.35C4.64667 33.35 5.25333 33.4533 5.78 33.66C6.30667 33.86 6.72667 34.14 7.04 34.5C7.36 34.86 7.53333 35.28 7.56 35.76H6.03C5.99667 35.52 5.89 35.3133 5.71 35.14C5.53667 34.96 5.29667 34.82 4.99 34.72C4.69 34.6133 4.33333 34.56 3.92 34.56C3.34667 34.56 2.88667 34.6533 2.54 34.84C2.2 35.02 2.03 35.27 2.03 35.59C2.03 35.83 2.13 36.0167 2.33 36.15C2.53667 36.2833 2.89667 36.3833 3.41 36.45L5.01 36.66C5.69 36.7467 6.23 36.87 6.63 37.03C7.03 37.19 7.31667 37.4033 7.49 37.67C7.66333 37.9367 7.75 38.28 7.75 38.7C7.75 39.1933 7.6 39.6233 7.3 39.99C7.00667 40.3567 6.59 40.6433 6.05 40.85C5.51 41.05 4.88 41.15 4.16 41.15C3.42667 41.15 2.78 41.04 2.22 40.82C1.66 40.6 1.21667 40.2967 0.89 39.91C0.57 39.5233 0.4 39.0733 0.38 38.56ZM13.2091 41V37.4H14.7191V41H13.2091ZM9.67906 33.5H11.3691L14.3391 37.25H13.5791L16.5491 33.5H18.2391L14.4491 38.28L13.4791 38.29L9.67906 33.5ZM28.127 40.04L27.567 40.11V33.5H29.027V41H27.117L22.087 34.39L22.647 34.31V41H21.177V33.5H23.147L28.127 40.04ZM36.1198 33.5C36.9865 33.5 37.7432 33.6567 38.3898 33.97C39.0365 34.2833 39.5398 34.7233 39.8998 35.29C40.2665 35.85 40.4498 36.5033 40.4498 37.25C40.4498 37.9967 40.2665 38.6533 39.8998 39.22C39.5398 39.78 39.0365 40.2167 38.3898 40.53C37.7432 40.8433 36.9865 41 36.1198 41H32.6398V33.5H36.1198ZM34.1498 40.44L33.3598 39.67H36.2298C36.7698 39.67 37.2432 39.57 37.6498 39.37C38.0565 39.1633 38.3698 38.88 38.5898 38.52C38.8098 38.1533 38.9198 37.73 38.9198 37.25C38.9198 36.7633 38.8098 36.34 38.5898 35.98C38.3698 35.62 38.0565 35.34 37.6498 35.14C37.2432 34.9333 36.7698 34.83 36.2298 34.83H33.3598L34.1498 34.06V40.44ZM43.673 33.5H45.183V41H43.673V33.5ZM56.8083 37.99C56.7416 38.61 56.5249 39.16 56.1583 39.64C55.7916 40.1133 55.3083 40.4833 54.7083 40.75C54.1149 41.0167 53.4349 41.15 52.6683 41.15C51.8216 41.15 51.0783 40.9867 50.4383 40.66C49.8049 40.3333 49.3083 39.8767 48.9483 39.29C48.5949 38.7033 48.4183 38.0233 48.4183 37.25C48.4183 36.4767 48.5949 35.7967 48.9483 35.21C49.3083 34.6233 49.8049 34.1667 50.4383 33.84C51.0783 33.5133 51.8216 33.35 52.6683 33.35C53.4349 33.35 54.1149 33.4833 54.7083 33.75C55.3083 34.0167 55.7916 34.3867 56.1583 34.86C56.5249 35.3333 56.7416 35.8833 56.8083 36.51H55.2883C55.2149 36.13 55.0616 35.8067 54.8283 35.54C54.6016 35.2667 54.3049 35.0567 53.9383 34.91C53.5716 34.7633 53.1483 34.69 52.6683 34.69C52.1083 34.69 51.6249 34.7933 51.2183 35C50.8116 35.2067 50.4983 35.5033 50.2783 35.89C50.0583 36.27 49.9483 36.7233 49.9483 37.25C49.9483 37.7767 50.0583 38.2333 50.2783 38.62C50.4983 39 50.8116 39.2933 51.2183 39.5C51.6249 39.7067 52.1083 39.81 52.6683 39.81C53.1483 39.81 53.5716 39.74 53.9383 39.6C54.3049 39.4533 54.6016 39.2433 54.8283 38.97C55.0616 38.6967 55.2149 38.37 55.2883 37.99H56.8083ZM60.7364 39.35V38.12H65.9564V39.35H60.7364ZM64.3464 33.5L67.8964 41H66.2864L63.1164 34.1H63.6464L60.4864 41H58.8764L62.4264 33.5H64.3464ZM71.8877 34.18H73.3977V41H71.8877V34.18ZM68.8477 33.5H76.4377V34.83H68.8477V33.5ZM85.4977 36.65V37.85H80.1977V36.65H85.4977ZM81.1977 37.25L80.6777 40.52L79.9977 39.73H85.7977V41H79.1477L79.7477 37.25L79.1477 33.5H85.7477V34.77H79.9977L80.6777 33.98L81.1977 37.25Z" fill="url(#paint2_linear_2857_132441)"/>
<path d="M10.9353 55.15C10.2186 55.15 9.61365 54.9917 9.12031 54.675C8.62698 54.355 8.25365 53.9133 8.00031 53.35C7.74698 52.7867 7.62031 52.1367 7.62031 51.4C7.62031 50.6633 7.74698 50.0133 8.00031 49.45C8.25365 48.8867 8.62698 48.4467 9.12031 48.13C9.61365 47.81 10.2186 47.65 10.9353 47.65C11.6553 47.65 12.2603 47.81 12.7503 48.13C13.2436 48.4467 13.617 48.8867 13.8703 49.45C14.127 50.0133 14.2553 50.6633 14.2553 51.4C14.2553 52.1367 14.127 52.7867 13.8703 53.35C13.617 53.9133 13.2436 54.355 12.7503 54.675C12.2603 54.9917 11.6553 55.15 10.9353 55.15ZM10.9353 54.445C11.4986 54.445 11.9686 54.3167 12.3453 54.06C12.722 53.8033 13.0036 53.4467 13.1903 52.99C13.3803 52.53 13.4753 52 13.4753 51.4C13.4753 50.8 13.3803 50.2717 13.1903 49.815C13.0036 49.3583 12.722 49.0017 12.3453 48.745C11.9686 48.4883 11.4986 48.3583 10.9353 48.355C10.372 48.355 9.90365 48.4833 9.53031 48.74C9.15698 48.9967 8.87531 49.355 8.68531 49.815C8.49865 50.2717 8.40365 50.8 8.40031 51.4C8.39698 52 8.48865 52.5283 8.67531 52.985C8.86531 53.4383 9.14865 53.795 9.52531 54.055C9.90198 54.3117 10.372 54.4417 10.9353 54.445ZM15.2516 55V49.6H15.9866V51.945H19.0316V49.6H19.7666V55H19.0316V52.65H15.9866V55H15.2516ZM20.6648 55V54.355C20.8648 54.3917 21.0165 54.3833 21.1198 54.33C21.2265 54.2733 21.3048 54.18 21.3548 54.05C21.4048 53.9167 21.4465 53.7517 21.4798 53.555C21.5332 53.2283 21.5815 52.8683 21.6248 52.475C21.6682 52.0817 21.7065 51.6483 21.7398 51.175C21.7765 50.6983 21.8132 50.1733 21.8498 49.6H25.5198V55H24.7898V50.305H22.5298C22.5065 50.6583 22.4798 51.01 22.4498 51.36C22.4198 51.71 22.3882 52.0467 22.3548 52.37C22.3248 52.69 22.2915 52.985 22.2548 53.255C22.2182 53.525 22.1798 53.7583 22.1398 53.955C22.0798 54.2517 21.9998 54.4883 21.8998 54.665C21.8032 54.8417 21.6582 54.9583 21.4648 55.015C21.2715 55.0717 21.0048 55.0667 20.6648 55ZM28.4618 55.15C28.0551 55.15 27.7135 55.0767 27.4368 54.93C27.1635 54.7833 26.9585 54.5883 26.8218 54.345C26.6851 54.1017 26.6168 53.8367 26.6168 53.55C26.6168 53.2567 26.6751 53.0067 26.7918 52.8C26.9118 52.59 27.0735 52.4183 27.2768 52.285C27.4835 52.1517 27.7218 52.05 27.9918 51.98C28.2651 51.9133 28.5668 51.855 28.8968 51.805C29.2301 51.7517 29.5551 51.7067 29.8718 51.67C30.1918 51.63 30.4718 51.5917 30.7118 51.555L30.4518 51.715C30.4618 51.1817 30.3585 50.7867 30.1418 50.53C29.9251 50.2733 29.5485 50.145 29.0118 50.145C28.6418 50.145 28.3285 50.2283 28.0718 50.395C27.8185 50.5617 27.6401 50.825 27.5368 51.185L26.8218 50.975C26.9451 50.4917 27.1935 50.1167 27.5668 49.85C27.9401 49.5833 28.4251 49.45 29.0218 49.45C29.5151 49.45 29.9335 49.5433 30.2768 49.73C30.6235 49.9133 30.8685 50.18 31.0118 50.53C31.0785 50.6867 31.1218 50.8617 31.1418 51.055C31.1618 51.2483 31.1718 51.445 31.1718 51.645V55H30.5168V53.645L30.7068 53.725C30.5235 54.1883 30.2385 54.5417 29.8518 54.785C29.4651 55.0283 29.0018 55.15 28.4618 55.15ZM28.5468 54.515C28.8901 54.515 29.1901 54.4533 29.4468 54.33C29.7035 54.2067 29.9101 54.0383 30.0668 53.825C30.2235 53.6083 30.3251 53.365 30.3718 53.095C30.4118 52.9217 30.4335 52.7317 30.4368 52.525C30.4401 52.315 30.4418 52.1583 30.4418 52.055L30.7218 52.2C30.4718 52.2333 30.2001 52.2667 29.9068 52.3C29.6168 52.3333 29.3301 52.3717 29.0468 52.415C28.7668 52.4583 28.5135 52.51 28.2868 52.57C28.1335 52.6133 27.9851 52.675 27.8418 52.755C27.6985 52.8317 27.5801 52.935 27.4868 53.065C27.3968 53.195 27.3518 53.3567 27.3518 53.55C27.3518 53.7067 27.3901 53.8583 27.4668 54.005C27.5468 54.1517 27.6735 54.2733 27.8468 54.37C28.0235 54.4667 28.2568 54.515 28.5468 54.515ZM34.7134 48.96C34.4768 48.96 34.2601 48.9017 34.0634 48.785C33.8668 48.6683 33.7101 48.5133 33.5934 48.32C33.4801 48.1233 33.4234 47.9067 33.4234 47.67H34.0334C34.0334 47.8567 34.1001 48.0167 34.2334 48.15C34.3668 48.2833 34.5268 48.35 34.7134 48.35C34.9034 48.35 35.0634 48.2833 35.1934 48.15C35.3268 48.0167 35.3934 47.8567 35.3934 47.67H36.0034C36.0034 47.9067 35.9451 48.1233 35.8284 48.32C35.7151 48.5133 35.5601 48.6683 35.3634 48.785C35.1668 48.9017 34.9501 48.96 34.7134 48.96ZM36.7634 49.6V55H36.0484V50.795L33.0884 55H32.4684V49.6H33.1834V53.77L36.1484 49.6H36.7634ZM38.1618 55V49.6H38.8968V51.945H41.9418V49.6H42.6768V55H41.9418V52.65H38.8968V55H38.1618ZM43.975 52.165V51.535H46.975V52.165H43.975ZM48.2692 55L48.2742 49.6H49.0142V52.2L51.4242 49.6H52.4042L49.8742 52.3L52.7342 55H51.6642L49.0142 52.4V55H48.2692ZM54.7802 55.15C54.3735 55.15 54.0318 55.0767 53.7552 54.93C53.4818 54.7833 53.2768 54.5883 53.1402 54.345C53.0035 54.1017 52.9352 53.8367 52.9352 53.55C52.9352 53.2567 52.9935 53.0067 53.1102 52.8C53.2302 52.59 53.3918 52.4183 53.5952 52.285C53.8018 52.1517 54.0402 52.05 54.3102 51.98C54.5835 51.9133 54.8852 51.855 55.2152 51.805C55.5485 51.7517 55.8735 51.7067 56.1902 51.67C56.5102 51.63 56.7902 51.5917 57.0302 51.555L56.7702 51.715C56.7802 51.1817 56.6768 50.7867 56.4602 50.53C56.2435 50.2733 55.8668 50.145 55.3302 50.145C54.9602 50.145 54.6468 50.2283 54.3902 50.395C54.1368 50.5617 53.9585 50.825 53.8552 51.185L53.1402 50.975C53.2635 50.4917 53.5118 50.1167 53.8852 49.85C54.2585 49.5833 54.7435 49.45 55.3402 49.45C55.8335 49.45 56.2518 49.5433 56.5952 49.73C56.9418 49.9133 57.1868 50.18 57.3302 50.53C57.3968 50.6867 57.4402 50.8617 57.4602 51.055C57.4802 51.2483 57.4902 51.445 57.4902 51.645V55H56.8352V53.645L57.0252 53.725C56.8418 54.1883 56.5568 54.5417 56.1702 54.785C55.7835 55.0283 55.3202 55.15 54.7802 55.15ZM54.8652 54.515C55.2085 54.515 55.5085 54.4533 55.7652 54.33C56.0218 54.2067 56.2285 54.0383 56.3852 53.825C56.5418 53.6083 56.6435 53.365 56.6902 53.095C56.7302 52.9217 56.7518 52.7317 56.7552 52.525C56.7585 52.315 56.7602 52.1583 56.7602 52.055L57.0402 52.2C56.7902 52.2333 56.5185 52.2667 56.2252 52.3C55.9352 52.3333 55.6485 52.3717 55.3652 52.415C55.0852 52.4583 54.8318 52.51 54.6052 52.57C54.4518 52.6133 54.3035 52.675 54.1602 52.755C54.0168 52.8317 53.8985 52.935 53.8052 53.065C53.7152 53.195 53.6702 53.3567 53.6702 53.55C53.6702 53.7067 53.7085 53.8583 53.7852 54.005C53.8652 54.1517 53.9918 54.2733 54.1652 54.37C54.3418 54.4667 54.5752 54.515 54.8652 54.515ZM60.7368 55.15C60.1935 55.15 59.7185 55.0317 59.3118 54.795C58.9085 54.555 58.5901 54.2233 58.3568 53.8L58.9468 53.425C59.1435 53.7583 59.3885 54.0117 59.6818 54.185C59.9751 54.3583 60.3118 54.445 60.6918 54.445C61.0885 54.445 61.4068 54.3533 61.6468 54.17C61.8868 53.9867 62.0068 53.735 62.0068 53.415C62.0068 53.195 61.9551 53.02 61.8518 52.89C61.7518 52.76 61.5985 52.6667 61.3918 52.61C61.1885 52.5533 60.9335 52.525 60.6268 52.525H59.9868V51.895H60.6168C60.9901 51.895 61.2901 51.8283 61.5168 51.695C61.7468 51.5583 61.8618 51.345 61.8618 51.055C61.8618 50.7483 61.7468 50.5217 61.5168 50.375C61.2901 50.225 61.0185 50.15 60.7018 50.15C60.3818 50.15 60.0785 50.2167 59.7918 50.35C59.5085 50.48 59.2701 50.6483 59.0768 50.855L58.6068 50.36C58.8768 50.0633 59.1918 49.8383 59.5518 49.685C59.9151 49.5283 60.3168 49.45 60.7568 49.45C61.1035 49.45 61.4168 49.5117 61.6968 49.635C61.9801 49.755 62.2035 49.9317 62.3668 50.165C62.5335 50.3983 62.6168 50.6783 62.6168 51.005C62.6168 51.3117 62.5418 51.5767 62.3918 51.8C62.2451 52.0233 62.0368 52.2083 61.7668 52.355L61.7268 52.08C61.9601 52.1233 62.1535 52.2167 62.3068 52.36C62.4601 52.5033 62.5735 52.675 62.6468 52.875C62.7201 53.075 62.7568 53.2783 62.7568 53.485C62.7568 53.8283 62.6668 54.125 62.4868 54.375C62.3101 54.6217 62.0685 54.8133 61.7618 54.95C61.4585 55.0833 61.1168 55.15 60.7368 55.15ZM68.1502 49.6V55H67.4352V50.795L64.4752 55H63.8552V49.6H64.5702V53.77L67.5352 49.6H68.1502ZM69.5485 55V49.6H70.2835V51.945H73.3285V49.6H74.0635V55H73.3285V52.65H70.2835V55H69.5485ZM77.7167 55.15C77.1801 55.15 76.7217 55.0283 76.3417 54.785C75.9617 54.5417 75.6701 54.205 75.4667 53.775C75.2634 53.345 75.1617 52.8517 75.1617 52.295C75.1617 51.7283 75.2651 51.2317 75.4717 50.805C75.6784 50.3783 75.9717 50.0467 76.3517 49.81C76.7351 49.57 77.1901 49.45 77.7167 49.45C78.2567 49.45 78.7167 49.5717 79.0967 49.815C79.4801 50.055 79.7717 50.39 79.9717 50.82C80.1751 51.2467 80.2767 51.7383 80.2767 52.295C80.2767 52.8617 80.1751 53.36 79.9717 53.79C79.7684 54.2167 79.4751 54.55 79.0917 54.79C78.7084 55.03 78.2501 55.15 77.7167 55.15ZM77.7167 54.445C78.3167 54.445 78.7634 54.2467 79.0567 53.85C79.3501 53.45 79.4967 52.9317 79.4967 52.295C79.4967 51.6417 79.3484 51.1217 79.0517 50.735C78.7584 50.3483 78.3134 50.155 77.7167 50.155C77.3134 50.155 76.9801 50.2467 76.7167 50.43C76.4567 50.61 76.2617 50.8617 76.1317 51.185C76.0051 51.505 75.9417 51.875 75.9417 52.295C75.9417 52.945 76.0917 53.4667 76.3917 53.86C76.6917 54.25 77.1334 54.445 77.7167 54.445Z" fill="white" fill-opacity="0.5"/>
<defs>
<linearGradient id="paint0_linear_2857_132441" x1="63.7042" y1="9.27407" x2="23.6679" y2="9.27089" gradientUnits="userSpaceOnUse">
<stop stop-color="#939393"/>
<stop offset="0.14" stop-color="white"/>
<stop offset="0.24" stop-color="#FAFAFA"/>
<stop offset="0.27" stop-color="#E8E8E8"/>
<stop offset="0.34" stop-color="#C7C7C7"/>
<stop offset="0.4" stop-color="#AFAFAF"/>
<stop offset="0.45" stop-color="#979797"/>
<stop offset="0.49" stop-color="#9C9C9C"/>
<stop offset="0.52" stop-color="#A3A3A3"/>
<stop offset="0.56" stop-color="#ADADAD"/>
<stop offset="0.6" stop-color="#B1B1B1"/>
<stop offset="0.64" stop-color="#D3D3D3"/>
<stop offset="0.69" stop-color="white"/>
<stop offset="0.77" stop-color="white"/>
<stop offset="0.83" stop-color="white"/>
<stop offset="1" stop-color="#A4A4A4"/>
</linearGradient>
<linearGradient id="paint1_linear_2857_132441" x1="64.4346" y1="20.8732" x2="24.3474" y2="20.87" gradientUnits="userSpaceOnUse">
<stop stop-color="#939393"/>
<stop offset="0.14" stop-color="white"/>
<stop offset="0.24" stop-color="#FAFAFA"/>
<stop offset="0.27" stop-color="#E8E8E8"/>
<stop offset="0.34" stop-color="#C7C7C7"/>
<stop offset="0.4" stop-color="#AFAFAF"/>
<stop offset="0.45" stop-color="#979797"/>
<stop offset="0.49" stop-color="#9C9C9C"/>
<stop offset="0.52" stop-color="#A3A3A3"/>
<stop offset="0.56" stop-color="#ADADAD"/>
<stop offset="0.6" stop-color="#B1B1B1"/>
<stop offset="0.64" stop-color="#D3D3D3"/>
<stop offset="0.69" stop-color="white"/>
<stop offset="0.77" stop-color="white"/>
<stop offset="0.83" stop-color="white"/>
<stop offset="1" stop-color="#A4A4A4"/>
</linearGradient>
<linearGradient id="paint2_linear_2857_132441" x1="90.3872" y1="37.0001" x2="-0.309866" y2="37.0209" gradientUnits="userSpaceOnUse">
<stop stop-color="#939393"/>
<stop offset="0.14" stop-color="white"/>
<stop offset="0.24" stop-color="#FAFAFA"/>
<stop offset="0.27" stop-color="#E8E8E8"/>
<stop offset="0.34" stop-color="#C7C7C7"/>
<stop offset="0.4" stop-color="#AFAFAF"/>
<stop offset="0.45" stop-color="#979797"/>
<stop offset="0.49" stop-color="#9C9C9C"/>
<stop offset="0.52" stop-color="#A3A3A3"/>
<stop offset="0.56" stop-color="#ADADAD"/>
<stop offset="0.6" stop-color="#B1B1B1"/>
<stop offset="0.64" stop-color="#D3D3D3"/>
<stop offset="0.69" stop-color="white"/>
<stop offset="0.77" stop-color="white"/>
<stop offset="0.83" stop-color="white"/>
<stop offset="1" stop-color="#A4A4A4"/>
</linearGradient>
</defs>
</svg>
